# xmcd
#
# Track frame offsets:
#	150
#	15645
#	26245
#	47167
#	60630
#	71832
#	93510
#	115842
#	127637
#	139727
#	152415
#	164812
#	177615
#	189715
#	203872
#	215280
#
# Disc length: 3059
#
# Revision: 2
# Processed by: cddbd v1.5.1PL0 Copyright (c) Steve Scherf et al.
# Submitted via: CDex 1.51
# Normalized: r1:TDELIM( - )
#
DISCID=e90bf110
DTITLE=Various Artist - Whole Lotta Blues
DYEAR=1999
DGENRE=Blues
TTITLE0=Floyd Dixon - Dallas Blues
TTITLE1=Larry Davis - Angels in Houston
TTITLE2=Robert Shaw - Going Down The Gulf
TTITLE3=Amos Wilburn - Down The Road Apiece
TTITLE4=Peppermint Harris - I Got Loaded
TTITLE5=Clrence Gatemouth Brown - Got My Mojo Working
TTITLE6=Lou Ann Barton - Shake Your Hips
TTITLE7=Smokey Hogg - Long Tall Mama
TTITLE8=Lightin' Hopkins - Shotgun
TTITLE9=Freddie King - Woman Across The River
TTITLE10=Johnny Winter - Good Morning Little School Girl
TTITLE11=Mercy Dee Walton - One Room Country Shack
TTITLE12=TBone Walker - Railroad Station Blues
TTITLE13=Johnny Copeland - Copeland Special
TTITLE14=Frankie Lee Sims - Lucy Mae Blues
TTITLE15=Albert Collins - Ice Pick
EXTD=YEAR: 1999
EXTT0=
EXTT1=
EXTT2=
EXTT3=
EXTT4=
EXTT5=
EXTT6=
EXTT7=
EXTT8=
EXTT9=
EXTT10=
EXTT11=
EXTT12=
EXTT13=
EXTT14=
EXTT15=
PLAYORDER=
